<svg viewBox="0 0 224 58" xmlns="http://www.w3.org/2000/svg" xmlns:xlink="http://www.w3.org/1999/xlink" width="224.000000" height="58.000000" fill="none" customFrame="#000000">
	<defs>
		<g id="pixso_custom_effect_0">
			<effect x="0.000000" y="4.000000" visibility="visible" fill="rgb(0,0,0)" fill-opacity="0.150000006" effectType="dropShadow" showShadowBehind="1" stdDeviation="4" radius="0" />
		</g>
		<filter id="filter_0" width="224.000000" height="58.000000" x="0.000000" y="0.000000" filterUnits="userSpaceOnUse" customEffect="url(#pixso_custom_effect_0)" color-interpolation-filters="sRGB">
			<feFlood flood-opacity="0" result="BackgroundImageFix" />
			<feOffset dx="0.000000" dy="4.000000" in="SourceAlpha" />
			<feGaussianBlur stdDeviation="1.33333337" />
			<feColorMatrix type="matrix" values="0 0 0 0 0 0 0 0 0 0 0 0 0 0 0 0 0 0 0.15 0 " />
			<feBlend result="effect_dropShadow_1" in2="BackgroundImageFix" mode="normal" />
			<feBlend result="shape" in="SourceGraphic" in2="effect_dropShadow_1" mode="normal" />
		</filter>
	</defs>
	<g id="Button">
		<g filter="url(#filter_0)">
			<rect id="bg" width="216.000000" height="50.000000" x="4.000000" y="0.000000" rx="4.000000" fill="rgb(33,150,243)" />
		</g>
		<path id="Замовити послугу" d="M41.4016 25.0156L39.6359 25.0156L39.6359 23.7734L41.0422 23.7734C41.4536 23.7734 41.787 23.7109 42.0422 23.5859C42.2974 23.4557 42.4849 23.2734 42.6047 23.0391C42.7245 22.8047 42.7844 22.5286 42.7844 22.2109C42.7844 21.9505 42.7167 21.7109 42.5813 21.4922C42.451 21.2734 42.2479 21.099 41.9719 20.9688C41.6958 20.8333 41.3443 20.7656 40.9172 20.7656C40.5943 20.7656 40.3 20.8229 40.0344 20.9375C39.7688 21.0521 39.5578 21.2135 39.4016 21.4219C39.2453 21.625 39.1672 21.8724 39.1672 22.1641L36.8313 22.1641C36.8313 21.6641 36.938 21.2161 37.1516 20.8203C37.3703 20.4193 37.6672 20.0807 38.0422 19.8047C38.4224 19.5234 38.8599 19.3099 39.3547 19.1641C39.8495 19.0182 40.3703 18.9453 40.9172 18.9453C41.5578 18.9453 42.1359 19.0156 42.6516 19.1562C43.1672 19.2917 43.6099 19.4948 43.9797 19.7656C44.3495 20.0365 44.6333 20.3724 44.8313 20.7734C45.0292 21.1745 45.1281 21.6406 45.1281 22.1719C45.1281 22.5625 45.0396 22.9297 44.8625 23.2734C44.6854 23.6172 44.4328 23.9193 44.1047 24.1797C43.7766 24.4401 43.3833 24.6458 42.925 24.7969C42.4667 24.9427 41.9589 25.0156 41.4016 25.0156ZM39.6359 24.3359L41.4016 24.3359C42.0214 24.3359 42.5708 24.401 43.05 24.5312C43.5344 24.6615 43.9432 24.8516 44.2766 25.1016C44.6151 25.3516 44.8703 25.6615 45.0422 26.0312C45.2193 26.3958 45.3078 26.8151 45.3078 27.2891C45.3078 27.8203 45.1984 28.2917 44.9797 28.7031C44.7661 29.1146 44.4615 29.4635 44.0656 29.75C43.675 30.0365 43.2115 30.2526 42.675 30.3984C42.1438 30.5443 41.5578 30.6172 40.9172 30.6172C40.4068 30.6172 39.899 30.5547 39.3938 30.4297C38.8885 30.2995 38.4302 30.1016 38.0188 29.8359C37.6073 29.5703 37.2792 29.2292 37.0344 28.8125C36.7896 28.3958 36.6672 27.8958 36.6672 27.3125L39.0188 27.3125C39.0188 27.5885 39.0995 27.8411 39.2609 28.0703C39.4224 28.2943 39.6464 28.474 39.9328 28.6094C40.2193 28.7396 40.5474 28.8047 40.9172 28.8047C41.3495 28.8047 41.7167 28.737 42.0188 28.6016C42.326 28.4661 42.5578 28.2812 42.7141 28.0469C42.8755 27.8073 42.9563 27.5443 42.9563 27.2578C42.9563 26.9505 42.9146 26.6901 42.8313 26.4766C42.7479 26.263 42.6255 26.0885 42.4641 25.9531C42.3026 25.8125 42.1021 25.7109 41.8625 25.6484C41.6281 25.5859 41.3547 25.5547 41.0422 25.5547L39.6359 25.5547L39.6359 24.3359ZM52.4241 28.5625L52.4241 24.7969C52.4241 24.526 52.3798 24.2943 52.2913 24.1016C52.2027 23.9036 52.0647 23.75 51.8772 23.6406C51.6949 23.5312 51.4579 23.4766 51.1663 23.4766C50.9163 23.4766 50.7001 23.5208 50.5178 23.6094C50.3355 23.6927 50.1949 23.8151 50.0959 23.9766C49.997 24.1328 49.9475 24.3177 49.9475 24.5312L47.6975 24.5312C47.6975 24.1719 47.7808 23.8307 47.9475 23.5078C48.1142 23.1849 48.3564 22.901 48.6741 22.6562C48.9918 22.4062 49.3694 22.2109 49.8069 22.0703C50.2496 21.9297 50.7444 21.8594 51.2913 21.8594C51.9475 21.8594 52.5308 21.9688 53.0413 22.1875C53.5517 22.4062 53.9527 22.7344 54.2444 23.1719C54.5413 23.6094 54.6897 24.1562 54.6897 24.8125L54.6897 28.4297C54.6897 28.8932 54.7183 29.2734 54.7756 29.5703C54.8329 29.862 54.9163 30.1172 55.0256 30.3359L55.0256 30.4688L52.7522 30.4688C52.6428 30.2396 52.5595 29.9531 52.5022 29.6094C52.4501 29.2604 52.4241 28.9115 52.4241 28.5625ZM52.7209 25.3203L52.7366 26.5938L51.4788 26.5938C51.1819 26.5938 50.9241 26.6276 50.7053 26.6953C50.4866 26.763 50.3069 26.8594 50.1663 26.9844C50.0256 27.1042 49.9215 27.2448 49.8538 27.4062C49.7913 27.5677 49.76 27.7448 49.76 27.9375C49.76 28.1302 49.8043 28.3047 49.8928 28.4609C49.9814 28.612 50.109 28.7318 50.2756 28.8203C50.4423 28.9036 50.6376 28.9453 50.8616 28.9453C51.2001 28.9453 51.4944 28.8776 51.7444 28.7422C51.9944 28.6068 52.1871 28.4401 52.3225 28.2422C52.4631 28.0443 52.536 27.8568 52.5413 27.6797L53.135 28.6328C53.0517 28.8464 52.9371 29.0677 52.7913 29.2969C52.6506 29.526 52.4709 29.7422 52.2522 29.9453C52.0334 30.1432 51.7704 30.3073 51.4631 30.4375C51.1558 30.5625 50.7913 30.625 50.3694 30.625C49.8329 30.625 49.3459 30.5182 48.9084 30.3047C48.4762 30.0859 48.1324 29.7865 47.8772 29.4062C47.6272 29.0208 47.5022 28.5833 47.5022 28.0938C47.5022 27.651 47.5855 27.2578 47.7522 26.9141C47.9189 26.5703 48.1637 26.2812 48.4866 26.0469C48.8147 25.8073 49.2235 25.6276 49.7131 25.5078C50.2027 25.3828 50.7704 25.3203 51.4163 25.3203L52.7209 25.3203ZM62.5247 27.8828L64.7434 22.0156L66.5794 22.0156L63.2825 30.4688L61.7669 30.4688L58.4856 22.0156L60.3216 22.0156L62.5247 27.8828ZM59.7825 22.0156L59.7825 30.4688L57.5325 30.4688L57.5325 22.0156L59.7825 22.0156ZM65.3216 30.4688L65.3216 22.0156L67.5716 22.0156L67.5716 30.4688L65.3216 30.4688ZM70.1409 26.3281L70.1409 26.1641C70.1409 25.5443 70.2295 24.974 70.4066 24.4531C70.5836 23.9271 70.8415 23.4714 71.18 23.0859C71.5185 22.7005 71.9352 22.401 72.43 22.1875C72.9248 21.9688 73.4925 21.8594 74.1331 21.8594C74.7738 21.8594 75.3441 21.9688 75.8441 22.1875C76.3441 22.401 76.7633 22.7005 77.1019 23.0859C77.4456 23.4714 77.706 23.9271 77.8831 24.4531C78.0602 24.974 78.1488 25.5443 78.1488 26.1641L78.1488 26.3281C78.1488 26.9427 78.0602 27.513 77.8831 28.0391C77.706 28.5599 77.4456 29.0156 77.1019 29.4062C76.7633 29.7917 76.3467 30.0911 75.8519 30.3047C75.3571 30.5182 74.7894 30.625 74.1488 30.625C73.5081 30.625 72.9378 30.5182 72.4378 30.3047C71.943 30.0911 71.5238 29.7917 71.18 29.4062C70.8415 29.0156 70.5836 28.5599 70.4066 28.0391C70.2295 27.513 70.1409 26.9427 70.1409 26.3281ZM72.3909 26.1641L72.3909 26.3281C72.3909 26.6823 72.4222 27.013 72.4847 27.3203C72.5472 27.6276 72.6461 27.8984 72.7816 28.1328C72.9222 28.362 73.1045 28.5417 73.3284 28.6719C73.5524 28.8021 73.8258 28.8672 74.1488 28.8672C74.4613 28.8672 74.7295 28.8021 74.9534 28.6719C75.1774 28.5417 75.3571 28.362 75.4925 28.1328C75.6279 27.8984 75.7269 27.6276 75.7894 27.3203C75.8571 27.013 75.8909 26.6823 75.8909 26.3281L75.8909 26.1641C75.8909 25.8203 75.8571 25.4974 75.7894 25.1953C75.7269 24.888 75.6253 24.6172 75.4847 24.3828C75.3493 24.1432 75.1696 23.9557 74.9456 23.8203C74.7217 23.6849 74.4508 23.6172 74.1331 23.6172C73.8154 23.6172 73.5446 23.6849 73.3206 23.8203C73.1019 23.9557 72.9222 24.1432 72.7816 24.3828C72.6461 24.6172 72.5472 24.888 72.4847 25.1953C72.4222 25.4974 72.3909 25.8203 72.3909 26.1641ZM84.7025 26.9375L82.0541 26.9375L82.0384 25.4609L84.2259 25.4609C84.5176 25.4609 84.7546 25.4323 84.9369 25.375C85.1192 25.3125 85.252 25.2214 85.3353 25.1016C85.4239 24.9766 85.4681 24.8255 85.4681 24.6484C85.4681 24.4922 85.4395 24.3594 85.3822 24.25C85.3301 24.1354 85.2494 24.0417 85.14 23.9688C85.0306 23.8958 84.8926 23.8438 84.7259 23.8125C84.5645 23.776 84.3744 23.7578 84.1556 23.7578L82.89 23.7578L82.89 30.4688L80.64 30.4688L80.64 22.0156L84.1556 22.0156C84.7077 22.0156 85.2025 22.0651 85.64 22.1641C86.0775 22.2578 86.4499 22.401 86.7572 22.5938C87.0697 22.7865 87.3067 23.0312 87.4681 23.3281C87.6348 23.6198 87.7181 23.9661 87.7181 24.3672C87.7181 24.6276 87.6582 24.8724 87.5384 25.1016C87.4239 25.3307 87.252 25.5339 87.0228 25.7109C86.7936 25.888 86.5098 26.0339 86.1712 26.1484C85.8379 26.2578 85.4525 26.3255 85.015 26.3516L84.7025 26.9375ZM84.7025 30.4688L81.4994 30.4688L82.2728 28.7266L84.7025 28.7266C84.9785 28.7266 85.2051 28.6927 85.3822 28.625C85.5593 28.5573 85.6895 28.4583 85.7728 28.3281C85.8614 28.1927 85.9056 28.0312 85.9056 27.8438C85.9056 27.6615 85.8666 27.5026 85.7884 27.3672C85.7103 27.2318 85.5827 27.1276 85.4056 27.0547C85.2337 26.9766 84.9994 26.9375 84.7025 26.9375L82.6009 26.9375L82.6166 25.4609L85.0072 25.4609L85.5541 26.0547C86.1478 26.0911 86.6374 26.2031 87.0228 26.3906C87.4082 26.5781 87.6921 26.8177 87.8744 27.1094C88.0619 27.3958 88.1556 27.7109 88.1556 28.0547C88.1556 28.4557 88.0801 28.8073 87.9291 29.1094C87.778 29.4115 87.5541 29.6641 87.2572 29.8672C86.9655 30.0651 86.6061 30.2161 86.1791 30.3203C85.752 30.4193 85.2598 30.4688 84.7025 30.4688ZM92.7406 27.3281L95.5766 22.0156L97.8266 22.0156L97.8266 30.4688L95.5766 30.4688L95.5766 25.1484L92.7406 30.4688L90.4906 30.4688L90.4906 22.0156L92.7406 22.0156L92.7406 27.3281ZM104.826 22.0156L104.826 30.4688L102.568 30.4688L102.568 22.0156L104.826 22.0156ZM107.544 22.0156L107.544 23.7578L99.8881 23.7578L99.8881 22.0156L107.544 22.0156ZM111.895 27.3281L114.731 22.0156L116.981 22.0156L116.981 30.4688L114.731 30.4688L114.731 25.1484L111.895 30.4688L109.645 30.4688L109.645 22.0156L111.895 22.0156L111.895 27.3281ZM130.307 22.0156L130.307 23.7812L126.213 23.7812L126.213 22.0156L130.307 22.0156ZM126.862 22.0156L126.862 30.4688L124.612 30.4688L124.612 22.0156L126.862 22.0156ZM131.948 22.0156L131.948 30.4688L129.69 30.4688L129.69 22.0156L131.948 22.0156ZM134.283 26.3281L134.283 26.1641C134.283 25.5443 134.371 24.974 134.548 24.4531C134.726 23.9271 134.983 23.4714 135.322 23.0859C135.66 22.7005 136.077 22.401 136.572 22.1875C137.067 21.9688 137.634 21.8594 138.275 21.8594C138.916 21.8594 139.486 21.9688 139.986 22.1875C140.486 22.401 140.905 22.7005 141.244 23.0859C141.587 23.4714 141.848 23.9271 142.025 24.4531C142.202 24.974 142.291 25.5443 142.291 26.1641L142.291 26.3281C142.291 26.9427 142.202 27.513 142.025 28.0391C141.848 28.5599 141.587 29.0156 141.244 29.4062C140.905 29.7917 140.489 30.0911 139.994 30.3047C139.499 30.5182 138.931 30.625 138.291 30.625C137.65 30.625 137.08 30.5182 136.58 30.3047C136.085 30.0911 135.666 29.7917 135.322 29.4062C134.983 29.0156 134.726 28.5599 134.548 28.0391C134.371 27.513 134.283 26.9427 134.283 26.3281ZM136.533 26.1641L136.533 26.3281C136.533 26.6823 136.564 27.013 136.627 27.3203C136.689 27.6276 136.788 27.8984 136.923 28.1328C137.064 28.362 137.246 28.5417 137.47 28.6719C137.694 28.8021 137.968 28.8672 138.291 28.8672C138.603 28.8672 138.871 28.8021 139.095 28.6719C139.319 28.5417 139.499 28.362 139.634 28.1328C139.77 27.8984 139.869 27.6276 139.931 27.3203C139.999 27.013 140.033 26.6823 140.033 26.3281L140.033 26.1641C140.033 25.8203 139.999 25.4974 139.931 25.1953C139.869 24.888 139.767 24.6172 139.627 24.3828C139.491 24.1432 139.311 23.9557 139.087 23.8203C138.864 23.6849 138.593 23.6172 138.275 23.6172C137.957 23.6172 137.686 23.6849 137.462 23.8203C137.244 23.9557 137.064 24.1432 136.923 24.3828C136.788 24.6172 136.689 24.888 136.627 25.1953C136.564 25.4974 136.533 25.8203 136.533 26.1641ZM148.126 28.8672C148.402 28.8672 148.646 28.8151 148.86 28.7109C149.074 28.6016 149.24 28.4505 149.36 28.2578C149.485 28.0599 149.55 27.8281 149.555 27.5625L151.673 27.5625C151.667 28.1562 151.508 28.6849 151.196 29.1484C150.883 29.6068 150.464 29.9688 149.938 30.2344C149.412 30.4948 148.824 30.625 148.173 30.625C147.516 30.625 146.943 30.5156 146.454 30.2969C145.969 30.0781 145.566 29.776 145.243 29.3906C144.92 29 144.678 28.5469 144.516 28.0312C144.355 27.5104 144.274 26.9531 144.274 26.3594L144.274 26.1328C144.274 25.5339 144.355 24.9766 144.516 24.4609C144.678 23.9401 144.92 23.487 145.243 23.1016C145.566 22.7109 145.969 22.4062 146.454 22.1875C146.938 21.9688 147.506 21.8594 148.157 21.8594C148.85 21.8594 149.456 21.9922 149.977 22.2578C150.503 22.5234 150.915 22.9036 151.212 23.3984C151.514 23.888 151.667 24.4688 151.673 25.1406L149.555 25.1406C149.55 24.8594 149.49 24.6042 149.376 24.375C149.266 24.1458 149.105 23.9635 148.891 23.8281C148.683 23.6875 148.425 23.6172 148.118 23.6172C147.79 23.6172 147.521 23.6875 147.313 23.8281C147.105 23.9635 146.943 24.151 146.829 24.3906C146.714 24.625 146.633 24.8932 146.587 25.1953C146.545 25.4922 146.524 25.8047 146.524 26.1328L146.524 26.3594C146.524 26.6875 146.545 27.0026 146.587 27.3047C146.628 27.6068 146.706 27.875 146.821 28.1094C146.941 28.3438 147.105 28.5286 147.313 28.6641C147.521 28.7995 147.792 28.8672 148.126 28.8672ZM159.625 22.0156L159.625 23.7812L155.468 23.7812L155.468 22.0156L159.625 22.0156ZM161.273 22.0156L161.273 30.4688L159.023 30.4688L159.023 22.0156L161.273 22.0156ZM154.906 22.0156L157.117 22.0156L156.89 26.2812C156.859 26.8906 156.794 27.4271 156.695 27.8906C156.596 28.3542 156.463 28.75 156.297 29.0781C156.135 29.4062 155.94 29.6745 155.711 29.8828C155.487 30.0859 155.224 30.2344 154.922 30.3281C154.625 30.4219 154.297 30.4688 153.937 30.4688L153.25 30.4688L153.226 28.6953L153.515 28.6641C153.682 28.6484 153.828 28.6016 153.953 28.5234C154.083 28.4401 154.192 28.3229 154.281 28.1719C154.375 28.0156 154.453 27.8203 154.515 27.5859C154.578 27.3464 154.627 27.0651 154.664 26.7422C154.705 26.4193 154.734 26.0469 154.75 25.625L154.906 22.0156ZM166.483 29.5156L168.725 22.0156L171.139 22.0156L167.741 31.7422C167.668 31.9557 167.569 32.1849 167.444 32.4297C167.324 32.6745 167.16 32.9062 166.952 33.125C166.749 33.349 166.491 33.5312 166.178 33.6719C165.871 33.8125 165.494 33.8828 165.046 33.8828C164.832 33.8828 164.658 33.8698 164.522 33.8438C164.387 33.8177 164.225 33.7812 164.038 33.7344L164.038 32.0859C164.095 32.0859 164.155 32.0859 164.217 32.0859C164.28 32.0911 164.34 32.0938 164.397 32.0938C164.694 32.0938 164.936 32.0599 165.124 31.9922C165.311 31.9245 165.462 31.8203 165.577 31.6797C165.691 31.5443 165.783 31.3672 165.85 31.1484L166.483 29.5156ZM165.546 22.0156L167.382 28.1406L167.702 30.5234L166.171 30.6875L163.132 22.0156L165.546 22.0156ZM178.748 22.0156L178.748 23.7812L175.232 23.7812L175.232 30.4688L172.982 30.4688L172.982 22.0156L178.748 22.0156ZM183.184 29.5156L185.427 22.0156L187.841 22.0156L184.442 31.7422C184.369 31.9557 184.27 32.1849 184.145 32.4297C184.026 32.6745 183.861 32.9062 183.653 33.125C183.45 33.349 183.192 33.5312 182.88 33.6719C182.572 33.8125 182.195 33.8828 181.747 33.8828C181.533 33.8828 181.359 33.8698 181.223 33.8438C181.088 33.8177 180.927 33.7812 180.739 33.7344L180.739 32.0859C180.796 32.0859 180.856 32.0859 180.919 32.0859C180.981 32.0911 181.041 32.0938 181.098 32.0938C181.395 32.0938 181.637 32.0599 181.825 31.9922C182.012 31.9245 182.164 31.8203 182.278 31.6797C182.393 31.5443 182.484 31.3672 182.552 31.1484L183.184 29.5156ZM182.247 22.0156L184.083 28.1406L184.403 30.5234L182.872 30.6875L179.833 22.0156L182.247 22.0156Z" fill="rgb(255,255,255)" fill-rule="nonzero" />
	</g>
</svg>
